<svg width="70" height="70" viewBox="0 0 70 70" fill="none" xmlns="http://www.w3.org/2000/svg">
<path d="M19.9727 4.37498C32.8737 -1.88217 48.3223 0.720576 58.4611 10.8594" stroke="#5A9A00" stroke-width="2" stroke-miterlimit="22.9256" stroke-linecap="round" stroke-linejoin="round"/>
<path d="M59.4412 5.58594L60.5035 13.1012L52.9883 12.0389" stroke="#5A9A00" stroke-width="2" stroke-miterlimit="22.9256" stroke-linecap="round" stroke-linejoin="round"/>
<path d="M16.3277 57.2791L8.8125 56.2168L9.87477 63.732" stroke="#5A9A00" stroke-width="2" stroke-miterlimit="22.9256" stroke-linecap="round" stroke-linejoin="round"/>
<path d="M63.7301 59.4432L56.2148 60.5055L57.2771 52.9902" stroke="#5A9A00" stroke-width="2" stroke-miterlimit="22.9256" stroke-linecap="round" stroke-linejoin="round"/>
<path d="M12.0389 16.3277L13.1012 8.8125L5.58594 9.87477" stroke="#5A9A00" stroke-width="2" stroke-miterlimit="22.9256" stroke-linecap="round" stroke-linejoin="round"/>
<path fill-rule="evenodd" clip-rule="evenodd" d="M47.2266 25.4418L51.4164 22.6484L55.6063 25.4418V46.6705H47.2266V25.4418Z" stroke="#5A9A00" stroke-width="2" stroke-miterlimit="22.9256" stroke-linecap="round" stroke-linejoin="round"/>
<path fill-rule="evenodd" clip-rule="evenodd" d="M30.4688 32.7045L34.6586 29.9111L38.8485 32.7045V46.6703H30.4688V32.7045Z" stroke="#5A9A00" stroke-width="2" stroke-miterlimit="22.9256" stroke-linecap="round" stroke-linejoin="round"/>
<path fill-rule="evenodd" clip-rule="evenodd" d="M13.707 36.3354L17.8969 33.542L22.0868 36.3354V46.6697H13.707V36.3354Z" stroke="#5A9A00" stroke-width="2" stroke-miterlimit="22.9256" stroke-linecap="round" stroke-linejoin="round"/>
<path d="M45.4102 26.6524L51.4156 22.6484L57.4211 26.6524" stroke="#5A9A00" stroke-width="2" stroke-miterlimit="22.9256" stroke-linecap="round" stroke-linejoin="round"/>
<path d="M28.6523 33.9911L34.6578 29.9873L40.6633 33.9911" stroke="#5A9A00" stroke-width="2" stroke-miterlimit="22.9256" stroke-linecap="round" stroke-linejoin="round"/>
<path d="M11.8906 37.4776L17.8961 33.4736L23.9016 37.4776" stroke="#5A9A00" stroke-width="2" stroke-miterlimit="22.9256" stroke-linecap="round" stroke-linejoin="round"/>
<path d="M65.018 20.1377C71.1639 32.9882 68.555 48.316 58.5039 58.4097" stroke="#5A9A00" stroke-width="2" stroke-miterlimit="22.9256" stroke-linecap="round" stroke-linejoin="round"/>
<path d="M49.1478 65.039C36.2786 71.1784 20.9374 68.5429 10.855 58.4605C10.7832 58.3887 10.7117 58.3166 10.6406 58.2441" stroke="#5A9A00" stroke-width="2" stroke-miterlimit="22.9256" stroke-linecap="round" stroke-linejoin="round"/>
<path d="M4.36324 49.3245C-1.87926 36.4274 0.727543 20.9919 10.8594 10.8602C11.3445 10.375 11.8444 9.9048 12.3584 9.4502" stroke="#5A9A00" stroke-width="2" stroke-miterlimit="22.9256" stroke-linecap="round" stroke-linejoin="round"/>
</svg>
