<svg width="64" height="70" viewBox="0 0 64 70" fill="none" xmlns="http://www.w3.org/2000/svg">
<path d="M53.3747 40.9179V35.6386V19.0895C53.3747 18.4806 53.2435 17.8842 52.9949 17.3409C52.7895 16.8842 52.5004 16.4638 52.1401 16.1021L38.3453 2.24722C37.9822 1.88269 37.5618 1.59218 37.1037 1.38408C36.5562 1.13268 35.957 1 35.3439 1H5.21233C2.88549 1 1 2.88549 1 5.21233V57.1234C1 59.4502 2.88549 61.3357 5.21233 61.3357H10.8087H35.7782" stroke="#5A9A00" stroke-width="2" stroke-miterlimit="10" stroke-linecap="round" stroke-linejoin="round"/>
<path d="M37.1055 1.38477V17.3416H52.9967" stroke="#5A9A00" stroke-width="2" stroke-miterlimit="10" stroke-linecap="round" stroke-linejoin="round"/>
<path d="M48.0224 68.3192C55.8768 68.3192 62.244 61.952 62.244 54.0976C62.244 46.2432 55.8768 39.876 48.0224 39.876C40.168 39.876 33.8008 46.2432 33.8008 54.0976C33.8008 61.952 40.168 68.3192 48.0224 68.3192Z" stroke="#5A9A00" stroke-width="2" stroke-miterlimit="10" stroke-linecap="round" stroke-linejoin="round"/>
<path d="M52.152 49.9668L43.8906 58.2282" stroke="#5A9A00" stroke-width="2" stroke-miterlimit="10" stroke-linecap="round" stroke-linejoin="round"/>
<path d="M43.8906 49.9668L52.152 58.2282" stroke="#5A9A00" stroke-width="2" stroke-miterlimit="10" stroke-linecap="round" stroke-linejoin="round"/>
<path d="M10.7773 9.5127H27.3278" stroke="#5A9A00" stroke-width="2" stroke-miterlimit="10" stroke-linecap="round" stroke-linejoin="round"/>
<path d="M10.7773 17.8926H27.3278" stroke="#5A9A00" stroke-width="2" stroke-miterlimit="10" stroke-linecap="round" stroke-linejoin="round"/>
<path d="M10.7773 26.2725H43.5989" stroke="#5A9A00" stroke-width="2" stroke-miterlimit="10" stroke-linecap="round" stroke-linejoin="round"/>
<path d="M10.7773 34.6523H35.2189" stroke="#5A9A00" stroke-width="2" stroke-miterlimit="10" stroke-linecap="round" stroke-linejoin="round"/>
</svg>
