<svg width="71" height="68" viewBox="0 0 71 68" fill="none" xmlns="http://www.w3.org/2000/svg">
<path d="M59.1019 39.5477C59.1019 48.8039 51.5982 56.3076 42.342 56.3076C33.0857 56.3076 25.582 48.8039 25.582 39.5477C25.582 30.2915 33.0857 22.7878 42.342 22.7878C51.5982 22.7878 59.1019 30.2915 59.1019 39.5477Z" stroke="#5A9A00" stroke-width="2" stroke-miterlimit="10" stroke-linecap="round"/>
<path d="M42.3398 31.1669V39.5469H50.7198" stroke="#5A9A00" stroke-width="2" stroke-miterlimit="10" stroke-linecap="round"/>
<path d="M69.7178 39.5473C69.7178 54.9744 57.7704 66.9219 42.3433 66.9219C26.9162 66.9219 14.9688 54.9744 14.9688 39.5473C14.9688 24.1203 26.9162 12.1728 42.3433 12.1728C57.7704 12.1728 69.7178 24.1203 69.7178 39.5473Z" stroke="#5A9A00" stroke-width="2" stroke-miterlimit="10" stroke-linecap="round"/>
<path d="M6.58594 56.3076H20.5504" stroke="#5A9A00" stroke-width="2" stroke-miterlimit="10" stroke-linecap="round"/>
<path d="M1 39.5469H14.9666" stroke="#5A9A00" stroke-width="2" stroke-miterlimit="10" stroke-linecap="round"/>
<path d="M6.58594 22.7871H20.5504" stroke="#5A9A00" stroke-width="2" stroke-miterlimit="10" stroke-linecap="round"/>
<path d="M47.9272 6.58621C47.9272 9.67157 45.426 12.1729 42.3405 12.1729C39.255 12.1729 36.7539 9.67157 36.7539 6.58621C36.7539 3.50085 39.255 0.999572 42.3405 0.999572C45.426 0.999572 47.9272 3.50085 47.9272 6.58621Z" stroke="#5A9A00" stroke-width="2" stroke-miterlimit="10" stroke-linecap="round"/>
</svg>
