<svg width="66" height="70" viewBox="0 0 66 70" fill="none" xmlns="http://www.w3.org/2000/svg">
<path d="M48.9053 34.9391V0.999751H1V59.6592H31.3968" stroke="#5A9A00" stroke-width="2" stroke-miterlimit="22.926" stroke-linecap="round" stroke-linejoin="round"/>
<path d="M30.6291 51.2793H9.37891V26.5584" stroke="#5A9A00" stroke-width="2" stroke-miterlimit="22.926" stroke-linecap="round" stroke-linejoin="round"/>
<path d="M40.6641 26.1403V35.8184" stroke="#5A9A00" stroke-width="2" stroke-miterlimit="22.926" stroke-linecap="round" stroke-linejoin="round"/>
<path d="M17.7617 27.3968V51.1396" stroke="#5A9A00" stroke-width="2" stroke-miterlimit="22.926" stroke-linecap="round" stroke-linejoin="round"/>
<path d="M9.66016 42.8994H32.8444" stroke="#5A9A00" stroke-width="2" stroke-miterlimit="22.926" stroke-linecap="round" stroke-linejoin="round"/>
<path d="M9.66016 34.5195H38.4311" stroke="#5A9A00" stroke-width="2" stroke-miterlimit="22.926" stroke-linecap="round" stroke-linejoin="round"/>
<path d="M9.66016 26.1396H40.3867" stroke="#5A9A00" stroke-width="2" stroke-miterlimit="22.926" stroke-linecap="round" stroke-linejoin="round"/>
<path d="M9.37891 9.37988H25.9992" stroke="#5A9A00" stroke-width="2" stroke-miterlimit="22.926" stroke-linecap="round" stroke-linejoin="round"/>
<path d="M9.37891 17.7598H39.9658" stroke="#5A9A00" stroke-width="2" stroke-miterlimit="22.926" stroke-linecap="round" stroke-linejoin="round"/>
<path d="M32.5636 59.4003C35.3847 64.6986 40.9677 68.3193 47.3693 68.3193C56.6004 68.3193 64.1292 60.7905 64.1292 51.5594C64.1292 42.3285 56.6004 34.7994 47.3693 34.7994C38.1382 34.7994 30.6094 42.3285 30.6094 51.5594C30.6094 54.3889 31.3166 57.0583 32.5636 59.4003Z" stroke="#5A9A00" stroke-width="2" stroke-miterlimit="22.926" stroke-linecap="round" stroke-linejoin="round"/>
<path d="M46.6499 51.2781C48.9375 52.0886 51.529 52.7133 51.5048 55.4081C51.4617 60.2239 43.3672 59.6869 43.3672 55.4231" stroke="#5A9A00" stroke-width="2" stroke-miterlimit="22.926" stroke-linecap="round" stroke-linejoin="round"/>
<path d="M46.8828 51.3672C44.979 50.6948 43.2146 49.8811 43.2345 47.6556C43.2777 42.8397 51.3722 43.3766 51.3722 47.6405" stroke="#5A9A00" stroke-width="2" stroke-miterlimit="22.926" stroke-linecap="round" stroke-linejoin="round"/>
<path d="M47.4805 58.9318V61.7266" stroke="#5A9A00" stroke-width="2" stroke-miterlimit="22.926" stroke-linecap="round" stroke-linejoin="round"/>
<path d="M47.2578 41.3918V44.1865" stroke="#5A9A00" stroke-width="2" stroke-miterlimit="22.926" stroke-linecap="round" stroke-linejoin="round"/>
</svg>
