<svg width="42" height="42" viewBox="0 0 42 42" fill="none" xmlns="http://www.w3.org/2000/svg">
<rect width="42" height="42" rx="21" fill="#5A9A00"/>
<path d="M22.209 11.5C25.1111 11.5 26.5625 11.4997 27.6709 12.0645C28.6459 12.5612 29.4388 13.3541 29.9355 14.3291C30.5004 15.4376 30.5 16.8889 30.5 19.791V22.209C30.5 25.1111 30.5004 26.5625 29.9355 27.6709C29.4388 28.6459 28.6459 29.4388 27.6709 29.9355C26.5625 30.5004 25.1111 30.5 22.209 30.5H19.791C16.8889 30.5 15.4376 30.5004 14.3291 29.9355C13.3541 29.4388 12.5612 28.6459 12.0645 27.6709C11.4997 26.5625 11.5 25.1111 11.5 22.209V19.791C11.5 16.8889 11.4997 15.4376 12.0645 14.3291C12.5612 13.3541 13.3541 12.5612 14.3291 12.0645C15.4376 11.4997 16.8889 11.5 19.791 11.5H22.209ZM19.791 13.2275C18.3116 13.2275 17.3057 13.2285 16.5283 13.292C15.771 13.3539 15.3834 13.4659 15.1133 13.6035C14.4633 13.9347 13.9347 14.4633 13.6035 15.1133C13.4659 15.3834 13.3539 15.771 13.292 16.5283C13.2285 17.3057 13.2275 18.3116 13.2275 19.791V22.209C13.2275 23.6885 13.2285 24.6943 13.292 25.4717C13.3539 26.229 13.4659 26.6166 13.6035 26.8867C13.9347 27.5367 14.4633 28.0653 15.1133 28.3965C15.3834 28.5341 15.771 28.6462 16.5283 28.708C17.3057 28.7715 18.3116 28.7725 19.791 28.7725H22.209C23.6885 28.7725 24.6943 28.7715 25.4717 28.708C26.229 28.6462 26.6166 28.5341 26.8867 28.3965C27.5367 28.0653 28.0653 27.5367 28.3965 26.8867C28.5341 26.6166 28.6462 26.229 28.708 25.4717C28.7715 24.6943 28.7725 23.6885 28.7725 22.209V19.791C28.7725 18.3116 28.7715 17.3057 28.708 16.5283C28.6462 15.771 28.5341 15.3834 28.3965 15.1133C28.0653 14.4633 27.5367 13.9347 26.8867 13.6035C26.6166 13.4659 26.229 13.3539 25.4717 13.292C24.6943 13.2285 23.6885 13.2275 22.209 13.2275H19.791ZM21 15.8184C23.8618 15.8184 26.1816 18.1382 26.1816 21C26.1815 23.8617 23.8618 26.1816 21 26.1816C18.1383 26.1816 15.8185 23.8617 15.8184 21C15.8184 18.1382 18.1382 15.8184 21 15.8184ZM21 17.5449C19.0921 17.545 17.5459 19.0921 17.5459 21C17.546 22.9077 19.0922 24.4541 21 24.4541C22.9078 24.4541 24.4549 22.9077 24.4551 21C24.4551 19.0921 22.9079 17.5449 21 17.5449ZM26.1816 14.9551C26.6585 14.9551 27.0457 15.3416 27.0459 15.8184C27.0459 16.2953 26.6586 16.6826 26.1816 16.6826C25.7048 16.6825 25.3184 16.2952 25.3184 15.8184C25.3186 15.3417 25.7049 14.9552 26.1816 14.9551Z" fill="#FDFDFD"/>
</svg>
