<svg width="42" height="42" viewBox="0 0 42 42" fill="none" xmlns="http://www.w3.org/2000/svg">
<rect width="42" height="42" rx="21" fill="#5A9A00"/>
<path fill-rule="evenodd" clip-rule="evenodd" d="M30.5 30.5H26.7V23.8509C26.7 22.0269 25.8954 21.0093 24.4523 21.0093C22.882 21.0093 21.95 22.0697 21.95 23.8509V30.5H18.15V18.15H21.95V19.5388C21.95 19.5388 23.1422 17.4468 25.8288 17.4468C28.5164 17.4468 30.5 19.0868 30.5 22.4802V30.5ZM13.8199 16.1749C12.5384 16.1749 11.5 15.128 11.5 13.837C11.5 12.5469 12.5384 11.5 13.8199 11.5C15.1005 11.5 16.1388 12.5469 16.1388 13.837C16.1398 15.128 15.1005 16.1749 13.8199 16.1749ZM11.5 30.5H16.25V18.15H11.5V30.5Z" fill="#FDFDFD"/>
</svg>
