<svg width="133" height="40" viewBox="0 0 133 40" fill="none" xmlns="http://www.w3.org/2000/svg">
<path d="M34.4661 25.4094C33.5974 28.4087 30.3862 30.1169 27.2937 29.2247L5.60023 22.966C2.50769 22.0738 0.704909 18.919 1.57361 15.9196C2.44231 12.9203 5.65353 11.2121 8.74607 12.1043L30.4395 18.363C33.5321 19.2552 35.3348 22.41 34.4661 25.4094Z" fill="#0A4A28"/>
<path d="M26.7841 19.215C29.403 17.7061 32.7515 18.6014 34.2636 21.215C35.7757 23.8289 34.8787 27.1717 32.2597 28.6808L13.8877 39.2668C11.2687 40.7758 7.92022 39.8806 6.40817 37.2668C4.89612 34.6529 5.79316 31.3101 8.41208 29.801L26.7841 19.215ZM18.0439 2.33026C17.4004 1.21725 18.3126 -0.149526 19.5898 0.0138573L31.4746 1.53437C32.4938 1.66476 33.1094 2.72781 32.7129 3.67401L28.0888 14.7072C27.5918 15.8926 25.9494 15.9969 25.3056 14.884L24.4121 13.3391L9.02731 22.2043C6.40833 23.7134 3.05892 22.8172 1.54684 20.2033C0.0351269 17.5896 0.932235 14.2477 3.55075 12.7385L18.9365 3.87323L18.0439 2.33026Z" fill="#5A9A00"/>
<path d="M48.8604 7.52197C50.7265 7.52197 52.3824 7.83179 53.8271 8.45264C55.2919 9.05344 56.4055 9.90489 57.168 11.0063C57.4288 11.4269 57.5596 11.788 57.5596 12.0884C57.5394 12.5888 57.288 13.019 56.8066 13.3794C56.5458 13.5596 56.2444 13.6499 55.9033 13.6499C55.2816 13.6498 54.7703 13.4095 54.3691 12.9292C53.7872 12.2282 53.0037 11.6774 52.0205 11.2769C51.0574 10.8764 50.004 10.6763 48.8604 10.6763C47.4359 10.6763 46.3221 10.8959 45.5195 11.3364C44.7371 11.7569 44.3459 12.3481 44.3457 13.1089C44.3457 13.8698 44.727 14.5008 45.4893 15.0015C46.2718 15.4821 47.6164 15.9427 49.5225 16.3833C51.6294 16.884 53.3252 17.4553 54.6094 18.0962C55.8936 18.717 56.8273 19.4577 57.4092 20.3188C58.0111 21.18 58.3115 22.212 58.3115 23.4136C58.3115 24.555 57.9703 25.5666 57.2881 26.4478C56.6059 27.3088 55.6424 27.9799 54.3984 28.4604C53.1544 28.921 51.7097 29.1509 50.0645 29.1509C48.098 29.1509 46.252 28.8308 44.5264 28.1899C42.8007 27.5291 41.3061 26.5873 40.042 25.3657C39.741 25.0653 39.5898 24.7248 39.5898 24.3442C39.5899 23.9038 39.7912 23.483 40.1924 23.0825C40.5132 22.7624 40.8642 22.6022 41.2451 22.6021C41.6464 22.6021 42.1286 22.8328 42.6904 23.2935C43.6335 24.1545 44.7471 24.8255 46.0312 25.3062C47.3355 25.7668 48.68 25.9966 50.0645 25.9966C51.3888 25.9966 52.4226 25.776 53.165 25.3354C53.9071 24.8749 54.2782 24.2344 54.2783 23.4136C54.2783 22.5524 53.8769 21.861 53.0742 21.3403C52.2716 20.7997 50.9073 20.3194 48.9814 19.8989C45.9515 19.238 43.7439 18.3661 42.3594 17.2847C40.9949 16.2032 40.3125 14.8112 40.3125 13.1089C40.3126 12.0276 40.6742 11.0661 41.3965 10.2251C42.1188 9.36412 43.1222 8.70323 44.4062 8.24268C45.7104 7.76212 47.1951 7.522 48.8604 7.52197ZM64.2666 7.52197C64.8485 7.52197 65.3307 7.68202 65.7119 8.00244C66.0932 8.32288 66.2842 8.76395 66.2842 9.32471V27.3491C66.2841 27.9097 66.093 28.35 65.7119 28.6704C65.3307 28.9908 64.8485 29.1509 64.2666 29.1509C63.6648 29.1508 63.1834 28.9908 62.8223 28.6704C62.4612 28.35 62.2803 27.9097 62.2803 27.3491V9.32471C62.2803 8.76395 62.4611 8.32288 62.8223 8.00244C63.1834 7.68212 63.6649 7.52205 64.2666 7.52197ZM84.5146 7.82275C85.1162 7.82281 85.5775 7.96257 85.8984 8.24268C86.2194 8.50299 86.3808 8.8837 86.3809 9.38428C86.3809 9.86479 86.2101 10.2455 85.8691 10.5259C85.5481 10.7862 85.0964 10.9165 84.5146 10.9165H75.8457C75.4445 10.9165 75.1236 11.0469 74.8828 11.3071C74.6621 11.5674 74.5518 11.9277 74.5518 12.3882V16.8647H82.2266C82.8285 16.8647 83.2903 17.0053 83.6113 17.2856C83.9323 17.546 84.0928 17.9267 84.0928 18.4272C84.0927 18.9076 83.922 19.2876 83.5811 19.5679C83.26 19.8282 82.8085 19.9585 82.2266 19.9585H74.5518V27.3491C74.5517 27.8897 74.3607 28.33 73.9795 28.6704C73.6184 28.9908 73.137 29.1508 72.5352 29.1509C71.9332 29.1509 71.451 28.9908 71.0898 28.6704C70.7289 28.35 70.5489 27.9096 70.5488 27.3491V12.2681C70.5489 10.8663 70.9494 9.77465 71.752 8.99365C72.5746 8.21262 73.7087 7.82279 75.1533 7.82275H84.5146ZM98.1934 7.52197C100.059 7.52197 101.786 7.84204 103.371 8.48291C104.956 9.12377 106.13 9.97524 106.893 11.0366C107.133 11.3569 107.253 11.6875 107.253 12.0278C107.253 12.5285 106.982 12.9798 106.44 13.3804C106.2 13.5604 105.899 13.6498 105.538 13.6499C105.237 13.6499 104.936 13.5904 104.635 13.4702C104.334 13.33 104.083 13.1392 103.883 12.8989C103.201 12.118 102.408 11.5578 101.505 11.2173C100.602 10.8568 99.4977 10.6763 98.1934 10.6763C96.0063 10.6763 94.3011 11.3575 93.0771 12.7192C91.8531 14.0611 91.2412 15.9434 91.2412 18.3667C91.2412 20.7699 91.8532 22.6421 93.0771 23.9839C94.3212 25.3257 96.0466 25.9966 98.2539 25.9966C100.782 25.9966 102.799 25.2559 104.304 23.7739C104.926 23.1932 105.498 22.9028 106.02 22.9028C106.381 22.9029 106.712 23.0229 107.013 23.2632C107.474 23.6637 107.705 24.1048 107.705 24.5854C107.705 24.9458 107.574 25.2959 107.313 25.6362C106.451 26.7377 105.217 27.5994 103.611 28.2202C102.026 28.841 100.24 29.1509 98.2539 29.1509C95.9865 29.1509 94.0199 28.721 92.3545 27.8599C90.689 26.9987 89.4151 25.7565 88.5322 24.1343C87.6493 22.5121 87.207 20.5897 87.207 18.3667C87.207 16.1437 87.6493 14.2213 88.5322 12.5991C89.4151 10.957 90.6789 9.7054 92.3242 8.84424C93.9896 7.96307 95.9461 7.52201 98.1934 7.52197ZM121.744 7.52197C124.092 7.52197 126.108 7.98261 127.794 8.90381C129.5 9.80503 130.794 11.077 131.677 12.7192C132.56 14.3414 133.001 16.2137 133.001 18.3364C133.001 20.4592 132.56 22.3417 131.677 23.9839C130.794 25.6061 129.5 26.8781 127.794 27.7993C126.108 28.7005 124.092 29.1509 121.744 29.1509C119.396 29.1509 117.37 28.7005 115.664 27.7993C113.979 26.8781 112.694 25.606 111.812 23.9839C110.929 22.3417 110.487 20.4592 110.487 18.3364C110.487 16.2137 110.929 14.3413 111.812 12.7192C112.694 11.077 113.979 9.80503 115.664 8.90381C117.37 7.98257 119.396 7.52198 121.744 7.52197ZM121.443 10.6763C119.256 10.6763 117.55 11.3769 116.326 12.7788C115.122 14.1606 114.521 16.0134 114.521 18.3364C114.521 20.6996 115.153 22.5727 116.417 23.9546C117.681 25.3162 119.457 25.9966 121.744 25.9966C124.031 25.9966 125.807 25.3162 127.071 23.9546C128.335 22.5727 128.968 20.6996 128.968 18.3364C128.968 15.9534 128.306 14.081 126.981 12.7192C125.677 11.3574 123.831 10.6763 121.443 10.6763Z" fill="#092D1A"/>
</svg>
