<svg width="206" height="63" viewBox="0 0 206 63" fill="none" xmlns="http://www.w3.org/2000/svg">
<path d="M53.3802 40.0194C52.0347 44.7434 47.0609 47.4338 42.2709 46.0286L8.67055 36.1711C3.8806 34.7659 1.08832 29.7971 2.43382 25.0731C3.77933 20.3491 8.75309 17.6587 13.543 19.0639L47.1434 28.9214C51.9334 30.3266 54.7257 35.2954 53.3802 40.0194Z" fill="#0A4A28"/>
<path d="M41.4843 30.2632C45.5407 27.8863 50.7272 29.2968 53.0692 33.4136C55.4112 37.5304 54.0219 42.7944 49.9657 45.1714L21.5106 61.8453C17.4543 64.2221 12.2668 62.8115 9.92469 58.6949C7.58269 54.5779 8.97271 49.313 13.0292 46.9361L41.4843 30.2632ZM27.9472 3.67045C26.9499 1.9174 28.3624 -0.236207 30.3407 0.0210341L48.7499 2.41557C50.3283 2.62118 51.2809 4.29555 50.6669 5.78568L43.5057 23.1626C42.7362 25.0301 40.1926 25.1948 39.1952 23.4419L37.8104 21.0074L13.9804 34.9703C9.92391 37.347 4.73736 35.9367 2.39539 31.8199C0.0534807 27.703 1.44345 22.4389 5.49989 20.062L29.329 6.09916L27.9472 3.67045Z" fill="#5A9A00"/>
<path d="M75.6758 11.8467C78.5661 11.8467 81.1305 12.3357 83.3682 13.3135C85.6367 14.2597 87.3611 15.6003 88.542 17.335C88.946 17.9973 89.1484 18.565 89.1484 19.0381C89.1174 19.8265 88.729 20.5046 87.9834 21.0723C87.5794 21.3562 87.1123 21.499 86.584 21.499C85.6208 21.4989 84.8285 21.12 84.207 20.3633C83.3057 19.2593 82.0932 18.3916 80.5703 17.7607C79.0786 17.13 77.4471 16.8145 75.6758 16.8145C73.4692 16.8145 71.7442 17.1616 70.501 17.8555C69.289 18.5178 68.6828 19.4481 68.6826 20.6465C68.6826 21.8451 69.2731 22.8394 70.4541 23.6279C71.6662 24.3849 73.7487 25.1098 76.7012 25.8037C79.9645 26.5923 82.591 27.4916 84.5801 28.501C86.5689 29.4787 88.0137 30.6458 88.915 32.002C89.8474 33.3583 90.3145 34.9834 90.3145 36.876C90.3144 38.6738 89.7852 40.2665 88.7285 41.6543C87.6719 43.0105 86.1806 44.0672 84.2539 44.8242C82.327 45.5497 80.0886 45.9131 77.54 45.9131C74.4943 45.9131 71.6347 45.4078 68.9619 44.3984C66.2892 43.3575 63.9736 41.8752 62.0156 39.9512C61.5496 39.4782 61.3165 38.9419 61.3164 38.3428C61.3164 37.6489 61.6275 36.9863 62.249 36.3555C62.7463 35.8508 63.2903 35.5986 63.8809 35.5986C64.5024 35.5987 65.2481 35.9612 66.1182 36.6865C67.5789 38.0428 69.304 39.0994 71.293 39.8564C73.3131 40.5819 75.3956 40.9443 77.54 40.9443C79.5913 40.9443 81.1918 40.5973 82.3418 39.9033C83.4916 39.1779 84.0673 38.1691 84.0674 36.876C84.0674 35.5197 83.4453 34.4314 82.2021 33.6113C80.959 32.7597 78.8458 32.0022 75.8623 31.3398C71.1693 30.2989 67.75 28.9269 65.6055 27.2236C63.4921 25.5203 62.4355 23.3276 62.4355 20.6465C62.4356 18.9433 62.9955 17.4292 64.1143 16.1045C65.233 14.7484 66.7867 13.7078 68.7754 12.9824C70.7956 12.2254 73.0962 11.8467 75.6758 11.8467ZM99.5381 11.8467C100.439 11.8467 101.186 12.0988 101.776 12.6035C102.367 13.1082 102.662 13.8024 102.662 14.6855V43.0742C102.662 43.9573 102.367 44.6516 101.776 45.1562C101.186 45.6609 100.439 45.9131 99.5381 45.9131C98.606 45.9131 97.8601 45.6607 97.3008 45.1562C96.7414 44.6516 96.461 43.9573 96.4609 43.0742V14.6855C96.4609 13.8023 96.7413 13.1082 97.3008 12.6035C97.8602 12.099 98.6059 11.8467 99.5381 11.8467ZM130.898 12.3193C131.831 12.3193 132.546 12.5408 133.043 12.9824C133.54 13.3925 133.789 13.9917 133.789 14.7803C133.789 15.5372 133.524 16.1365 132.996 16.5781C132.499 16.988 131.8 17.1934 130.898 17.1934H117.473C116.851 17.1934 116.353 17.3985 115.98 17.8086C115.639 18.2186 115.468 18.7863 115.468 19.5117V26.5615H127.355C128.288 26.5615 129.003 26.7821 129.5 27.2236C129.997 27.6336 130.246 28.233 130.246 29.0215C130.246 29.7785 129.981 30.3777 129.453 30.8193C128.956 31.2294 128.257 31.4346 127.355 31.4346H115.468V43.0742C115.468 43.9258 115.173 44.6201 114.582 45.1562C114.023 45.6609 113.276 45.9131 112.344 45.9131C111.412 45.913 110.666 45.6607 110.106 45.1562C109.547 44.6516 109.268 43.9574 109.268 43.0742V19.3223C109.268 17.1143 109.889 15.3952 111.132 14.165C112.406 12.9349 114.163 12.3193 116.4 12.3193H130.898ZM152.086 11.8467C154.976 11.8467 157.649 12.3511 160.104 13.3604C162.56 14.3697 164.379 15.711 165.56 17.3828C165.932 17.8872 166.118 18.4074 166.118 18.9434C166.118 19.7319 165.699 20.4424 164.86 21.0732C164.487 21.3571 164.02 21.499 163.461 21.499C162.995 21.499 162.529 21.404 162.062 21.2148C161.596 20.9941 161.208 20.6939 160.897 20.3154C159.841 19.0853 158.612 18.2022 157.214 17.666C155.815 17.0984 154.106 16.8145 152.086 16.8145C148.698 16.8145 146.057 17.8874 144.161 20.0322C142.265 22.1455 141.317 25.1102 141.317 28.9268C141.317 32.7118 142.265 35.6611 144.161 37.7744C146.088 39.8878 148.761 40.9453 152.18 40.9453C156.096 40.9453 159.219 39.7775 161.55 37.4434C162.513 36.5288 163.399 36.0714 164.207 36.0713C164.766 36.0713 165.28 36.2611 165.746 36.6396C166.461 37.2703 166.818 37.964 166.818 38.7207C166.818 39.2884 166.616 39.8408 166.212 40.377C164.875 42.1118 162.964 43.4685 160.478 44.4463C158.022 45.424 155.256 45.9131 152.18 45.9131C148.668 45.9131 145.622 45.2343 143.042 43.8779C140.463 42.5216 138.489 40.5666 137.121 38.0117C135.754 35.4567 135.07 32.428 135.07 28.9268C135.07 25.4257 135.754 22.3976 137.121 19.8428C138.489 17.2564 140.447 15.285 142.995 13.9287C145.575 12.5409 148.605 11.8467 152.086 11.8467ZM188.563 11.8467C192.2 11.8467 195.323 12.5725 197.934 14.0234C200.575 15.4429 202.58 17.4458 203.947 20.0322C205.315 22.5872 205.999 25.5364 205.999 28.8799C205.999 32.2233 205.315 35.188 203.947 37.7744C202.58 40.3294 200.575 42.3332 197.934 43.7842C195.323 45.2035 192.2 45.913 188.563 45.9131C184.927 45.9131 181.787 45.2036 179.146 43.7842C176.535 42.3332 174.546 40.3293 173.179 37.7744C171.811 35.188 171.127 32.2233 171.127 28.8799C171.127 25.5364 171.811 22.5872 173.179 20.0322C174.546 17.4459 176.535 15.4429 179.146 14.0234C181.787 12.5725 184.927 11.8467 188.563 11.8467ZM188.097 16.8145C184.709 16.8145 182.068 17.919 180.172 20.127C178.307 22.3034 177.374 25.2209 177.374 28.8799C177.374 32.6019 178.354 35.5511 180.312 37.7275C182.27 39.8724 185.02 40.9453 188.563 40.9453C192.106 40.9452 194.857 39.8723 196.814 37.7275C198.772 35.5511 199.752 32.6019 199.752 28.8799C199.752 25.1263 198.726 22.1771 196.675 20.0322C194.655 17.8873 191.795 16.8145 188.097 16.8145Z" fill="#FDFDFD"/>
</svg>
