<svg width="42" height="42" viewBox="0 0 42 42" fill="none" xmlns="http://www.w3.org/2000/svg">
<rect width="42" height="42" rx="21" fill="#5A9A00"/>
<path fill-rule="evenodd" clip-rule="evenodd" d="M19.089 23.5861V17.9743C20.9816 18.9117 22.4474 19.8173 24.181 20.7936C22.7512 21.6283 20.9816 22.5649 19.089 23.5861ZM29.6365 15.1833C29.31 14.7305 28.7536 14.3781 28.1612 14.2614C26.42 13.9134 15.5574 13.9124 13.8172 14.2614C13.3422 14.3551 12.9191 14.5817 12.5558 14.9338C11.0247 16.4297 11.5044 24.4517 11.8735 25.7511C12.0287 26.3136 12.2293 26.7193 12.482 26.9855C12.8075 27.3376 13.2532 27.5799 13.7651 27.6886C15.1988 28.0008 22.5846 28.1753 28.1309 27.7355C28.6419 27.6418 29.0942 27.3916 29.451 27.0246C30.8666 25.5347 30.7701 17.0621 29.6365 15.1833Z" fill="#FDFDFD"/>
</svg>
